<svg version="1.2" xmlns="http://www.w3.org/2000/svg" viewBox="0 0 45 42" width="45" height="42">
	<title>Path 62</title>
	<defs>
		<linearGradient id="g1" x1="30.2" y1="36.9" x2="43.8" y2="22.7" gradientUnits="userSpaceOnUse">
			<stop offset="0" stop-color="#d9dada"/>
			<stop offset="1" stop-color="#fefefe"/>
		</linearGradient>
		<linearGradient id="g2" x1="15.3" y1="32.5" x2="26.1" y2="45.8" gradientUnits="userSpaceOnUse">
			<stop offset="0" stop-color="#d9dada"/>
			<stop offset="1" stop-color="#fefefe"/>
		</linearGradient>
	</defs>
	<style>
		.s0 { fill: #fefefe } 
		.s1 { fill: url(#g1) } 
		.s2 { fill: url(#g2) } 
	</style>
	<path id="Path 62" class="s0" d="m17.5 0.1h2 3.4 2 4.6 0.8c1.9 0 4.5 1.5 5.9 3.4l7.6 10.1c1.4 1.8 1.1 3.3-0.8 3.3h-5.4c-1.8 0-4.5-1.5-5.9-3.3l-7.6-10.1q-0.1-0.2-0.2-0.3-0.1 0.1-0.2 0.3l-12.6 16.4 8.2 10.7c-0.9-0.4-1.9-0.6-2.7-0.6h-5.5q-1.2 0-2 0.6-0.5 0.4-0.8 1 0 0.1-0.1 0.3l-6.6-8.7q-0.1-0.2-0.3-0.4c-0.5-0.8-0.9-1.8-0.9-2.9 0-0.9 0.2-1.7 0.6-2.4q0.2-0.5 0.6-1l10-13c1.4-1.8 4-3.4 5.9-3.4z"/>
	<path id="Path 63" class="s1" d="m30.3 41.2h-5.4c-1.8 0-2.2-1.5-0.8-3.3l7.5-9.9c1.4-1.9 4.1-3.4 5.9-3.4h5.4c1.8 0 2.2 1.5 0.8 3.4l-7.5 9.9c-1.4 1.8-4 3.3-5.9 3.3zm-11-38.8h8.5v4.3h-1.3c-0.6-0.8-1.6-1.3-2.6-1.3-1.1 0-2 0.5-2.6 1.3h-2z"/>
	<path id="Path 64" class="s2" d="m18.7 41.2h0.8 4.6 3.3l-2-2.6q-0.2-0.4-0.5-0.7l-1.9-2.5c-1.4-1.8-4.1-3.3-5.9-3.3h-5.4c-1.9 0-2.2 1.5-0.8 3.3l1.9 2.5c1.4 1.8 4 3.3 5.9 3.3z"/>
</svg>