<svg xmlns="http://www.w3.org/2000/svg" viewBox="0 0 21.63 38.47"><defs><style>.cls-1{fill:#b39a61;fill-rule:evenodd;}</style></defs><g id="Layer_2" data-name="Layer 2"><g id="Layer_1-2" data-name="Layer 1"><path class="cls-1" d="M14.86,0s.87,5-1.58,8.89c-3.81,6-11.68,12.84-13,18.92a9.27,9.27,0,0,0,1.68,7.86,9.89,9.89,0,0,0,3.65,2.68c-8.66-6.81.65-17.23,5.14-23,2.15-2.76,3.67-4.41,4.69-7.81S14.86,0,14.86,0"/><path class="cls-1" d="M10.32,38.47a8.47,8.47,0,0,1-5.51-5.63c-1.63-5.49,4.54-11.76,7.66-15.76a48.19,48.19,0,0,0,3-4l.7-1a12,12,0,0,0,2.07-6.17,7.75,7.75,0,0,0-1-4.53C16.56.31,16.33.2,16.33.2a7.06,7.06,0,0,1,3.44,4.88,13.35,13.35,0,0,1-.54,6.45c-.89,2.58.56,6.08,2.2,8a.62.62,0,0,1-.16,1,3,3,0,0,1-1.4.32,2.5,2.5,0,0,0,.3,1.32c.35.48.5.87.25,1.16s-.89.62-.72.74.67.74.39,1-.92,1.23-.84,1.71.12,2.35-.85,2.79c-3.31,1.5-6.19-2.48-10-.53-2.51,1.29-1.68,5.6-.16,7.32a12.83,12.83,0,0,0,2.08,2"/></g></g></svg>